# xmcd CD database file
#
# Track frame offsets:
#	150
#	26645
#	123766
#	141164
#	212861
#
# Disc length: 2988 seconds
#
# Revision: 0
# Processed by: cddbd v1.5.2PL0 Copyright (c) Steve Scherf et al.
# Submitted via: CDex 1.70beta2
#
DISCID=430baa05
DTITLE=渋さ知らズ - 巴里渋舞曲(Disc-1)
DYEAR=2007
DGENRE=Jazz
TTITLE0=バルタザール 
TTITLE1=股旅
TTITLE2=Hiro-Kun On The Corner 
TTITLE3=Fight On The Corner 
TTITLE4=We Are Fisherman's Band-intro-
EXTD=YEAR: 2007
EXTT0=
EXTT1=
EXTT2=
EXTT3=
EXTT4=
PLAYORDER=
